{"title":"A monster In Paris 2011 720P BRRIP STUDIO AUDIO x264 AC3 - HOPE","uid":7035978,"size":2354147010,"categoryP":"video","categoryS":"hd___movies","magnet":"?xt=urn:btih:2d9b6a6248dc30a315e247478041c94c71ff2069&amp;dn=A+monster+In+Paris+2011+720P+BRRIP+STUDIO+AUDIO+x264+AC3+-+HOPE&amp;tr=udp%3A%2F%2Ftracker.openbittorrent.com%3A80&amp;tr=udp%3A%2F%2Fopen.demonii.com%3A1337&amp;tr=udp%3A%2F%2Ftracker.coppersurfer.tk%3A6969&amp;tr=udp%3A%2F%2Fexodus.desync.com%3A6969","seeders":1,"leechers":0,"uploader":null,"files":4,"time":1329385286,"description":"A 3D-animated movie set in Paris in the year 1910 and centered on a monster who lives in a garden and his love for a beautiful, young singer. Paris.\n\nIMDB: &lt;a href=&quot;\nhttp://www.imdb.com/title/tt0961097/&quot; rel=&quot;nofollow&quot; target=&quot;_NEW&quot;&gt;\nhttp://www.imdb.com/title/tt0961097/&lt;/a&gt;\n\n\n\nInformation:\nFormat : Matroska\nFormat version : Version 2\nFile size : 2.17 GiB\nDuration : 1h 31mn\nOverall bit rate : 3 411 Kbps\nEncoded date : UTC 2012-02-15 20:50:26\nWriting application : mkvmerge v5.2.1 ('A Far Off Place') built on Jan 2 2012 23:21:10\nWriting library : libebml v1.2.3 + libmatroska v1.3.0\n\nVideo\nID : 1\nFormat : AVC\nFormat/Info : Advanced Video Codec\nFormat profile : &lt;a class=&quot;__cf_email__&quot; href=&quot;/cdn-cgi/l/email-protection&quot; data-cfemail=&quot;5b13323c331b176e756a&quot;&gt;[email&amp;#160;protected]&lt;/a&gt;&lt;script cf-hash='f9e31' type=&quot;text/javascript&quot;&gt;\n/* &lt;![CDATA[ */!function(){try{var t=&quot;currentScript&quot;in document?document.currentScript:function(){for(var t=document.getElementsByTagName(&quot;script&quot;),e=t.length;e--;)if(t[e].getAttribute(&quot;cf-hash&quot;))return t[e]}();if(t&amp;&amp;t.previousSibling){var e,r,n,i,c=t.previousSibling,a=c.getAttribute(&quot;data-cfemail&quot;);if(a){for(e=&quot;&quot;,r=parseInt(a.substr(0,2),16),n=2;a.length-n;n+=2)i=parseInt(a.substr(n,2),16)^r,e+=String.fromCharCode(i);e=document.createTextNode(e),c.parentNode.replaceChild(e,c)}}}catch(u){}}();/* ]]&gt; */&lt;/script&gt;\nFormat settings, CABAC : Yes\nFormat settings, ReFrames : 6 frames\nMuxing mode : Container profile=&lt;a class=&quot;__cf_email__&quot; href=&quot;/cdn-cgi/l/email-protection&quot; data-cfemail=&quot;54013a3f3a3b233a14647a64&quot;&gt;[email&amp;#160;protected]&lt;/a&gt;&lt;script cf-hash='f9e31' type=&quot;text/javascript&quot;&gt;\n/* &lt;![CDATA[ */!function(){try{var t=&quot;currentScript&quot;in document?document.currentScript:function(){for(var t=document.getElementsByTagName(&quot;script&quot;),e=t.length;e--;)if(t[e].getAttribute(&quot;cf-hash&quot;))return t[e]}();if(t&amp;&amp;t.previousSibling){var e,r,n,i,c=t.previousSibling,a=c.getAttribute(&quot;data-cfemail&quot;);if(a){for(e=&quot;&quot;,r=parseInt(a.substr(0,2),16),n=2;a.length-n;n+=2)i=parseInt(a.substr(n,2),16)^r,e+=String.fromCharCode(i);e=document.createTextNode(e),c.parentNode.replaceChild(e,c)}}}catch(u){}}();/* ]]&gt; */&lt;/script&gt;\nCodec ID : V_MPEG4/ISO/AVC\nDuration : 1h 31mn\nBit rate : 2 999 Kbps\nWidth : 1 280 pixels\nHeight : 688 pixels\nDisplay aspect ratio : 1.860\nFrame rate : 23.976 fps\nColor space : YUV\nChroma subsampling : 4:2:0\nBit depth : 8 bits\nScan type : Progressive\nBits/(Pixel*Frame) : 0.142\nStream size : 1.84 GiB (85%)\nWriting library : x264 core 120 r2164 da19765\n\nAudio\nID : 2\nFormat : AC-3\nFormat/Info : Audio Coding 3\nMode extension : CM (complete main)\nCodec ID : A_AC3\nDuration : 1h 31mn\nBit rate mode : Constant\nBit rate : 448 Kbps\nChannel(s) : 6 channels\nChannel positions : Front: L C R, Side: L R, LFE\nSampling rate : 48.0 KHz\nBit depth : 16 bits\nCompression mode : Lossy\nStream size : 292 MiB (13%)\nLanguage : English\n\nUsed the FRENCH bluray video, and got the\nenglish studio audio from the RC Bluray\nPrefect untouched Video &amp; Audio... Enjoy\n\nVideo Source &gt; 1080p Bluray - HDC... Thanks\nAudio Source &gt; RC Bluray - Lum1x... Thanks\n\nEnjoy!\n\nRespects to 26K, DTRG, JCRG, GooN, ViSiON, SANTi, INSPiRAL, REFiLL, SiC...\nAnd many others in the P2P and Scene world","torrent":{"xt":"urn:btih:2d9b6a6248dc30a315e247478041c94c71ff2069","amp;dn":"A+monster+In+Paris+2011+720P+BRRIP+STUDIO+AUDIO+x264+AC3+-+HOPE","amp;tr":["udp%3A%2F%2Ftracker.openbittorrent.com%3A80","udp%3A%2F%2Fopen.demonii.com%3A1337","udp%3A%2F%2Ftracker.coppersurfer.tk%3A6969","udp%3A%2F%2Fexodus.desync.com%3A6969"],"infoHash":"2d9b6a6248dc30a315e247478041c94c71ff2069","infoHashBuffer":{"type":"Buffer","data":[45,155,106,98,72,220,48,163,21,226,71,71,128,65,201,76,113,255,32,105]},"announce":[],"urlList":[]}}